<?xml version="1.0" encoding="UTF-8" standalone="no"?>
<!-- Created with Inkscape (http://www.inkscape.org/) -->

<svg
   width="15.24mm"
   height="128.5mm"
   viewBox="0 0 15.239999 128.50001"
   version="1.1"
   id="svg5"
   inkscape:version="1.1.2 (0a00cf5339, 2022-02-04)"
   sodipodi:docname="phone-sensor.svg"
   xmlns:inkscape="http://www.inkscape.org/namespaces/inkscape"
   xmlns:sodipodi="http://sodipodi.sourceforge.net/DTD/sodipodi-0.dtd"
   xmlns="http://www.w3.org/2000/svg"
   xmlns:svg="http://www.w3.org/2000/svg">
  <sodipodi:namedview
     id="namedview7"
     pagecolor="#545454"
     bordercolor="#ffffff"
     borderopacity="1"
     inkscape:pageshadow="0"
     inkscape:pageopacity="0"
     inkscape:pagecheckerboard="true"
     inkscape:document-units="mm"
     showgrid="false"
     units="mm"
     width="60.96mm"
     inkscape:zoom="2"
     inkscape:cx="25.5"
     inkscape:cy="419.5"
     inkscape:window-width="1600"
     inkscape:window-height="838"
     inkscape:window-x="0"
     inkscape:window-y="0"
     inkscape:window-maximized="1"
     inkscape:current-layer="text15318-6" />
  <defs
     id="defs2" />
  <g
     inkscape:label="Layer 1"
     inkscape:groupmode="layer"
     id="layer1"
     style="display:inline"
     sodipodi:insensitive="true">
    <rect
       style="fill:#272727;fill-opacity:1;stroke-width:0.265;stroke-miterlimit:4;stroke-dasharray:none;paint-order:markers stroke fill"
       id="rect894"
       width="15.241"
       height="128.496"
       x="0.00072074757"
       y="0.0024964733" />
    <g
       aria-label="OUT"
       id="text15318-6"
       style="font-size:5.64444px;line-height:1.25;stroke-width:0.0565065"
       transform="translate(0,4.2333335)">
      <g
         aria-label="Qualia   Touch"
         id="text3329"
         style="font-size:2.46944px;line-height:1.25;fill:#aaaaaa;stroke:none;stroke-width:0.0149507;stroke-opacity:1;fill-opacity:1"
         transform="translate(-1.559e-4,-3.835e-4)"
         inkscape:label="qualiatouch">
        <path
           d="m 1.6065569,118.9642 q -0.2652719,0 -0.4220234,0.19775 -0.1555458,0.19775 -0.1555458,0.53899 0,0.34003 0.1555458,0.53777 0.1567515,0.19775 0.4220234,0.19775 0.2652719,0 0.4196119,-0.19775 0.1555458,-0.19774 0.1555458,-0.53777 0,-0.34124 -0.1555458,-0.53899 -0.15434,-0.19775 -0.4196119,-0.19775 z m 0.3412361,1.60249 0.3207378,0.35088 H 1.9743202 l -0.2664777,-0.28818 q -0.039791,0.002 -0.061495,0.004 -0.020498,10e-4 -0.039791,10e-4 -0.3798211,0 -0.60771373,-0.25321 -0.22668687,-0.25442 -0.22668687,-0.68006 0,-0.42685 0.22668687,-0.68006 0.22789263,-0.25442 0.60771373,-0.25442 0.3786153,0 0.6053022,0.25442 0.2266869,0.25321 0.2266869,0.68006 0,0.3135 -0.1266071,0.53657 -0.1254012,0.22307 -0.3641459,0.32918 z"
           id="path27739"
           style="stroke:none;stroke-opacity:1;fill:#aaaaaa;fill-opacity:1" />
        <path
           d="m 2.7870168,120.06629 v -0.81752 h 0.2218637 v 0.80908 q 0,0.19172 0.074758,0.28818 0.074758,0.0953 0.2242753,0.0953 0.1796614,0 0.2833586,-0.11455 0.1049029,-0.11455 0.1049029,-0.3123 v -0.76567 h 0.2218638 v 1.35047 H 3.6961758 v -0.20739 q -0.080787,0.12299 -0.1881018,0.18328 -0.1061088,0.0591 -0.2471852,0.0591 -0.2327158,0 -0.3532939,-0.14469 -0.1205781,-0.1447 -0.1205781,-0.42323 z m 0.5582767,-0.85008 z"
           id="path27741"
           style="stroke:none;stroke-opacity:1;fill:#aaaaaa;fill-opacity:1" />
        <path
           d="m 4.9887733,119.92039 q -0.2688892,0 -0.3725864,0.0615 -0.1036972,0.0615 -0.1036972,0.20981 0,0.11817 0.07717,0.1881 0.078376,0.0687 0.2122175,0.0687 0.1844845,0 0.2954164,-0.13022 0.1121377,-0.13143 0.1121377,-0.34847 v -0.0494 z m 0.4425217,-0.0916 v 0.77049 H 5.2094313 v -0.20498 q -0.075964,0.12299 -0.1893077,0.18207 -0.1133434,0.0579 -0.2773297,0.0579 -0.2073944,0 -0.3303841,-0.11575 -0.1217839,-0.11696 -0.1217839,-0.3123 0,-0.22789 0.1519285,-0.34365 0.1531342,-0.11575 0.4557853,-0.11575 h 0.3110916 v -0.0217 q 0,-0.15313 -0.1012857,-0.23633 -0.1000798,-0.0844 -0.2821528,-0.0844 -0.115755,0 -0.2254811,0.0277 -0.1097261,0.0277 -0.2110117,0.0832 v -0.20499 q 0.1217839,-0.047 0.2363331,-0.0699 0.1145492,-0.0241 0.2230696,-0.0241 0.2930048,0 0.4376985,0.15193 0.1446938,0.15193 0.1446938,0.46061 z"
           id="path27743"
           style="stroke:none;stroke-opacity:1;fill:#aaaaaa;fill-opacity:1" />
        <path
           d="M 5.8882862,118.72305 H 6.11015 v 1.87619 H 5.8882862 Z"
           id="path27745"
           style="stroke:none;stroke-opacity:1;fill:#aaaaaa;fill-opacity:1" />
        <path
           d="m 6.5743757,119.24877 h 0.2218638 v 1.35047 H 6.5743757 Z m 0,-0.52572 h 0.2218638 v 0.28094 H 6.5743757 Z"
           id="path27747"
           style="stroke:none;stroke-opacity:1;fill:#aaaaaa;fill-opacity:1" />
        <path
           d="m 7.8742079,119.92039 q -0.2688892,0 -0.3725864,0.0615 -0.1036972,0.0615 -0.1036972,0.20981 0,0.11817 0.07717,0.1881 0.078376,0.0687 0.2122175,0.0687 0.1844845,0 0.2954164,-0.13022 0.1121377,-0.13143 0.1121377,-0.34847 v -0.0494 z m 0.4425217,-0.0916 v 0.77049 H 8.0948659 v -0.20498 q -0.075964,0.12299 -0.1893077,0.18207 -0.1133434,0.0579 -0.2773297,0.0579 -0.2073943,0 -0.330384,-0.11575 -0.1217839,-0.11696 -0.1217839,-0.3123 0,-0.22789 0.1519284,-0.34365 0.1531342,-0.11575 0.4557853,-0.11575 h 0.3110916 v -0.0217 q 0,-0.15313 -0.1012856,-0.23633 -0.1000799,-0.0844 -0.2821529,-0.0844 -0.115755,0 -0.225481,0.0277 -0.1097261,0.0277 -0.2110118,0.0832 v -0.20499 q 0.1217839,-0.047 0.2363332,-0.0699 0.1145492,-0.0241 0.2230695,-0.0241 0.2930048,0 0.4376986,0.15193 0.1446937,0.15193 0.1446937,0.46061 z"
           id="path27749"
           style="stroke:none;stroke-opacity:1;fill:#aaaaaa;fill-opacity:1" />
        <path
           d="m 2.196184,121.88581 h 1.5229017 v 0.20498 H 3.0800216 v 1.59525 H 2.835248 v -1.59525 H 2.196184 Z"
           id="path27751"
           style="stroke:none;stroke-opacity:1;fill:#aaaaaa;fill-opacity:1" />
        <path
           d="m 4.048264,122.49111 q -0.1784557,0 -0.2821528,0.13987 -0.1036972,0.13867 -0.1036972,0.38103 0,0.24236 0.1024914,0.38223 0.1036972,0.13867 0.2833586,0.13867 0.1772498,0 0.280947,-0.13987 0.1036972,-0.13987 0.1036972,-0.38103 0,-0.23995 -0.1036972,-0.37982 -0.1036972,-0.14108 -0.280947,-0.14108 z m 0,-0.1881 q 0.2893875,0 0.4545795,0.1881 0.165192,0.18811 0.165192,0.5209 0,0.33159 -0.165192,0.5209 -0.165192,0.1881 -0.4545795,0.1881 -0.2905933,0 -0.4557853,-0.1881 -0.1639863,-0.18931 -0.1639863,-0.5209 0,-0.33279 0.1639863,-0.5209 0.165192,-0.1881 0.4557853,-0.1881 z"
           id="path27753"
           style="stroke:none;stroke-opacity:1;fill:#aaaaaa;fill-opacity:1" />
        <path
           d="m 5.0128888,123.15309 v -0.81752 h 0.2218638 v 0.80908 q 0,0.19172 0.074758,0.28818 0.074758,0.0953 0.2242753,0.0953 0.1796614,0 0.2833586,-0.11455 0.104903,-0.11455 0.104903,-0.3123 v -0.76567 h 0.2218637 v 1.35047 H 5.9220479 v -0.20739 q -0.080787,0.12299 -0.1881019,0.18328 -0.1061087,0.0591 -0.2471852,0.0591 -0.2327157,0 -0.3532939,-0.14469 -0.1205781,-0.1447 -0.1205781,-0.42323 z m 0.5582767,-0.85008 z"
           id="path27755"
           style="stroke:none;stroke-opacity:1;fill:#aaaaaa;fill-opacity:1" />
        <path
           d="m 7.5727624,122.38742 v 0.20739 q -0.094051,-0.0519 -0.1893077,-0.0772 -0.094051,-0.0265 -0.1905134,-0.0265 -0.2158349,0 -0.3352072,0.13746 -0.1193724,0.13626 -0.1193724,0.38344 0,0.24719 0.1193724,0.38465 0.1193723,0.13625 0.3352072,0.13625 0.096462,0 0.1905134,-0.0253 0.095257,-0.0265 0.1893077,-0.0784 v 0.20498 q -0.092845,0.0434 -0.192925,0.0651 -0.098874,0.0217 -0.2110118,0.0217 -0.3050626,0 -0.484724,-0.19172 -0.1796614,-0.19172 -0.1796614,-0.51728 0,-0.33038 0.1808672,-0.51969 0.1820729,-0.18931 0.4979876,-0.18931 0.1024914,0 0.2001597,0.0217 0.097668,0.0205 0.1893077,0.0627 z"
           id="path27757"
           style="stroke:none;stroke-opacity:1;fill:#aaaaaa;fill-opacity:1" />
        <path
           d="m 9.0811949,122.87094 v 0.8151 H 8.8593311 v -0.80787 q 0,-0.19172 -0.074758,-0.28698 -0.074758,-0.0952 -0.2242753,-0.0952 -0.1796614,0 -0.2833586,0.11455 -0.1036972,0.11455 -0.1036972,0.31229 v 0.76326 H 7.9501721 v -1.87619 h 0.2230695 v 0.73552 q 0.079582,-0.12178 0.1868961,-0.18207 0.1085203,-0.0603 0.2495967,-0.0603 0.2327158,0 0.3520881,0.1447 0.1193724,0.14348 0.1193724,0.42323 z"
           id="path27759"
           style="stroke:none;stroke-opacity:1;fill:#aaaaaa;fill-opacity:1" />
      </g>
      <g
         aria-label="Phone
Sensor"
         id="text13376"
         style="font-weight:bold;font-size:3.88056px;font-family:Ubuntu;-inkscape-font-specification:'Ubuntu Bold';fill:#aaaaaa;stroke-width:0.0149507"
         inkscape:label="phone sensor">
        <path
           d="m 2.8534466,2.8850394 q 0.6014868,0 0.9235732,0.2134308 0.3220865,0.2095502 0.3220865,0.6907396 0,0.48507 -0.325967,0.7023814 Q 3.4471722,4.705022 2.8418049,4.705022 H 2.6516575 V 5.6053119 H 2.0462901 V 2.9548894 q 0.1979086,-0.038806 0.4191005,-0.054328 0.2211919,-0.015522 0.388056,-0.015522 z m 0.038806,0.5161144 q -0.06597,0 -0.1319391,0.00388 -0.062089,0.00388 -0.1086556,0.00776 v 0.776112 h 0.1901474 q 0.3143254,0 0.4734283,-0.085372 0.159103,-0.085372 0.159103,-0.3182059 0,-0.1125363 -0.042686,-0.1862669 Q 3.3928444,3.5253318 3.3152332,3.4826456 3.2415026,3.4360789 3.1328469,3.4205566 3.0241912,3.4011538 2.8922526,3.4011538 Z"
           style="text-align:center;text-anchor:middle"
           id="path72274" />
        <path
           d="M 4.5065616,5.6053119 V 2.6871308 L 5.084765,2.5939974 v 0.9779011 q 0.058208,-0.019403 0.1474613,-0.034925 0.093133,-0.019403 0.1785058,-0.019403 0.2483558,0 0.4113393,0.06985 0.1668641,0.06597 0.2638781,0.1901474 0.1008945,0.124178 0.1397001,0.2949226 0.042686,0.1707446 0.042686,0.3802949 V 5.6053119 H 5.6901324 V 4.5226357 q 0,-0.2794004 -0.073731,-0.3958172 -0.06985,-0.1164168 -0.263878,-0.1164168 -0.077611,0 -0.1474613,0.015522 -0.06597,0.011642 -0.1202974,0.027164 v 1.552224 z"
           style="text-align:center;text-anchor:middle"
           id="path72276" />
        <path
           d="m 8.7014423,4.5808441 q 0,0.2405947 -0.06985,0.4423838 -0.06985,0.1979085 -0.2017891,0.3414893 -0.131939,0.1397001 -0.3182059,0.2173113 -0.1823863,0.077611 -0.4113393,0.077611 -0.2250725,0 -0.4113394,-0.077611 Q 7.1065322,5.5044173 6.9745932,5.3647172 6.8426541,5.2211364 6.7689235,5.0232279 6.6951928,4.8214388 6.6951928,4.5808441 q 0,-0.2405948 0.073731,-0.4385033 0.077611,-0.1979086 0.2095502,-0.3376087 0.1358196,-0.1397002 0.3182059,-0.2173114 0.1862669,-0.077611 0.4035783,-0.077611 0.2211919,0 0.4035782,0.077611 0.1862669,0.077611 0.3182059,0.2173114 0.131939,0.1397001 0.2056697,0.3376087 0.073731,0.1979085 0.07373,0.4385033 z m -0.5898451,0 q 0,-0.2677587 -0.1086557,-0.4191005 -0.1047751,-0.1552224 -0.3026836,-0.1552224 -0.1979086,0 -0.3065643,0.1552224 -0.1086556,0.1513418 -0.1086556,0.4191005 0,0.2677586 0.1086556,0.4268615 0.1086557,0.1552224 0.3065643,0.1552224 0.1979085,0 0.3026836,-0.1552224 0.1086557,-0.1591029 0.1086557,-0.4268615 z"
           style="text-align:center;text-anchor:middle"
           id="path72278" />
        <path
           d="m 9.1477004,3.6339874 q 0.1474613,-0.042686 0.3802949,-0.077611 0.2328336,-0.038806 0.4889507,-0.038806 0.259997,0 0.430742,0.06985 0.174625,0.06597 0.27552,0.1901474 0.100894,0.124178 0.14358,0.2949226 0.04269,0.1707446 0.04269,0.3802949 V 5.6053119 H 10.331271 V 4.5226357 q 0,-0.2794004 -0.07373,-0.3958172 -0.07373,-0.1164168 -0.2755202,-0.1164168 -0.062089,0 -0.1319391,0.00776 -0.06985,0.00388 -0.1241779,0.011642 V 5.6053119 H 9.1477004 Z"
           style="text-align:center;text-anchor:middle"
           id="path72280" />
        <path
           d="m 11.336332,4.6002469 q 0,-0.2716392 0.08149,-0.4734284 0.08537,-0.2056696 0.221192,-0.3414892 0.135819,-0.1358196 0.310444,-0.2056697 0.178506,-0.06985 0.364773,-0.06985 0.434623,0 0.686859,0.2677586 0.252236,0.2638781 0.252236,0.7799926 0,0.050447 -0.0039,0.1125362 -0.0039,0.058208 -0.0078,0.1047751 h -1.311629 q 0.0194,0.1785058 0.166864,0.2832809 0.147461,0.1047751 0.395817,0.1047751 0.159103,0 0.310445,-0.027164 0.155222,-0.031045 0.252236,-0.073731 l 0.07761,0.4695477 q -0.04657,0.023283 -0.124178,0.046567 -0.07761,0.023283 -0.174625,0.038806 -0.09313,0.019403 -0.201789,0.031044 -0.108656,0.011642 -0.217311,0.011642 -0.27552,0 -0.48119,-0.081492 Q 11.732149,5.4966562 11.596329,5.356956 11.46439,5.2133753 11.398421,5.0193473 11.336332,4.8253193 11.336332,4.6002469 Z m 1.358196,-0.221192 q -0.0039,-0.073731 -0.02716,-0.1435807 -0.0194,-0.06985 -0.06597,-0.1241779 -0.04269,-0.054328 -0.112536,-0.089253 -0.06597,-0.034925 -0.166864,-0.034925 -0.09701,0 -0.166864,0.034925 -0.06985,0.031045 -0.116417,0.085372 -0.04657,0.054328 -0.07373,0.1280585 -0.02328,0.06985 -0.03492,0.1435807 z"
           style="text-align:center;text-anchor:middle"
           id="path72282" />
        <path
           d="m 2.283007,9.9942251 q 0.1280584,0 0.2095502,-0.019403 0.085372,-0.023283 0.1358196,-0.058208 0.050447,-0.038806 0.06985,-0.089253 0.019403,-0.050447 0.019403,-0.1125363 0,-0.131939 -0.1241779,-0.2173113 Q 2.4692738,9.4082606 2.1665902,9.307366 2.0346511,9.2607993 1.9027121,9.2025909 1.7707731,9.140502 1.6659979,9.0512491 1.5612228,8.9581156 1.4952533,8.8300572 1.4292838,8.6981181 1.4292838,8.5118513 q 0,-0.1862669 0.06985,-0.3337282 0.06985,-0.1513418 0.1979085,-0.256117 0.1280585,-0.1047751 0.3104448,-0.1591029 0.1823863,-0.058208 0.4113394,-0.058208 0.2716392,0 0.4695477,0.058208 0.1979086,0.058208 0.325967,0.1280585 L 3.0397162,8.3682705 Q 2.9271799,8.3100621 2.7874798,8.267376 2.6516602,8.2208093 2.4576322,8.2208093 q -0.2173114,0 -0.3143254,0.062089 -0.093133,0.058208 -0.093133,0.1823863 0,0.073731 0.034925,0.124178 0.034925,0.050447 0.097014,0.093133 0.06597,0.038806 0.1474613,0.073731 0.085372,0.031045 0.1862669,0.065969 0.2095502,0.077611 0.3647726,0.1552224 0.1552224,0.073731 0.2561169,0.1746252 0.1047752,0.1008946 0.1552224,0.2367142 0.050447,0.1358196 0.050447,0.3298476 0,0.376415 -0.2638781,0.585965 -0.263878,0.20567 -0.7955147,0.20567 -0.1785058,0 -0.3220865,-0.02328 Q 1.8173399,10.46766 1.7048036,10.43661 1.596148,10.40556 1.5146562,10.37064 1.4370452,10.33571 1.3827172,10.30467 L 1.5534617,9.8234805 Q 1.6737591,9.88945 1.8483843,9.9437779 2.02689,9.9942251 2.283007,9.9942251 Z"
           style="text-align:center;text-anchor:middle"
           id="path72284" />
        <path
           d="m 3.6722428,9.4509468 q 0,-0.2716392 0.081492,-0.4734284 0.085372,-0.2056696 0.2211919,-0.3414892 0.1358196,-0.1358196 0.3104448,-0.2056697 0.1785057,-0.06985 0.3647726,-0.06985 0.4346227,0 0.6868591,0.2677586 0.2522364,0.2638781 0.2522364,0.7799926 0,0.050447 -0.00388,0.1125362 -0.00388,0.058208 -0.00776,0.1047751 H 4.2659685 q 0.019403,0.1785058 0.1668641,0.2832809 0.1474612,0.1047751 0.3958171,0.1047751 0.1591029,0 0.3104448,-0.027164 0.1552224,-0.031045 0.2522364,-0.073731 l 0.077611,0.469548 q -0.046567,0.02328 -0.124178,0.04657 -0.077611,0.02328 -0.1746252,0.0388 -0.093133,0.0194 -0.2017891,0.03104 -0.1086557,0.01164 -0.2173113,0.01164 -0.2755198,0 -0.4811895,-0.08149 Q 4.0680599,10.347356 3.9322403,10.207656 3.8003013,10.064075 3.7343318,9.8700472 3.6722428,9.6760192 3.6722428,9.4509468 Z m 1.358196,-0.221192 q -0.00388,-0.073731 -0.027164,-0.1435807 -0.019403,-0.06985 -0.06597,-0.1241779 -0.042686,-0.054328 -0.1125362,-0.089253 -0.06597,-0.034925 -0.1668641,-0.034925 -0.097014,0 -0.166864,0.034925 -0.06985,0.031045 -0.1164168,0.085372 -0.046567,0.054328 -0.073731,0.1280585 -0.023283,0.06985 -0.034925,0.1435807 z"
           style="text-align:center;text-anchor:middle"
           id="path72286" />
        <path
           d="m 6.0355024,8.4846873 q 0.1474613,-0.042686 0.3802949,-0.077611 0.2328336,-0.038806 0.4889505,-0.038806 0.2599975,0 0.4307422,0.06985 0.1746252,0.06597 0.2755197,0.1901474 0.1008946,0.124178 0.1435808,0.2949226 0.042686,0.1707446 0.042686,0.3802949 V 10.456012 H 7.2190732 V 9.3733356 q 0,-0.2794004 -0.073731,-0.3958172 -0.073731,-0.1164168 -0.2755197,-0.1164168 -0.062089,0 -0.131939,0.00776 -0.06985,0.00388 -0.124178,0.011642 V 10.456012 H 6.0355024 Z"
           style="text-align:center;text-anchor:middle"
           id="path72288" />
        <path
           d="m 8.907112,10.040792 q 0.1591029,0 0.2250724,-0.03104 0.06597,-0.031044 0.06597,-0.120297 0,-0.06985 -0.085372,-0.1202973 Q 9.0274093,9.7148248 8.8527841,9.6488553 8.7169645,9.598408 8.6044283,9.5440802 8.4957726,9.4897524 8.4181614,9.4160217 8.3405502,9.3384105 8.2978641,9.2336354 8.2551779,9.1288603 8.2551779,8.981399 q 0,-0.2871614 0.2134308,-0.4540255 0.2134308,-0.1668641 0.5859645,-0.1668641 0.1862669,0 0.3570116,0.034925 0.1707446,0.031044 0.2716391,0.06985 L 9.5823294,8.9154295 Q 9.4814348,8.8805044 9.3611375,8.8533405 9.2447207,8.8261766 9.0972594,8.8261766 q -0.2716392,0 -0.2716392,0.1513418 0,0.034925 0.011642,0.062089 0.011642,0.027164 0.046567,0.054328 0.034925,0.023283 0.093133,0.054328 0.062089,0.027164 0.1552224,0.062089 0.1901475,0.06985 0.3143254,0.1397002 0.1241779,0.065969 0.194028,0.1474613 0.073731,0.077611 0.1008945,0.1746252 0.031045,0.097014 0.031045,0.2250724 0,0.3026835 -0.228953,0.4579055 -0.2250725,0.155223 -0.6402924,0.155223 -0.2716392,0 -0.4540255,-0.04657 Q 8.2707008,10.4172 8.2008508,10.38616 l 0.097014,-0.4695477 q 0.1474612,0.058208 0.3026836,0.093133 0.1552224,0.03104 0.3065643,0.03104 z"
           style="text-align:center;text-anchor:middle"
           id="path72290" />
        <path
           d="m 12.112449,9.431544 q 0,0.2405947 -0.06985,0.4423838 -0.06985,0.1979082 -0.201789,0.3414892 -0.131939,0.1397 -0.318206,0.217311 -0.182386,0.07761 -0.411339,0.07761 -0.225073,0 -0.41134,-0.07761 Q 10.517539,10.355117 10.3856,10.215417 10.253661,10.071836 10.17993,9.8739278 10.1062,9.6721387 10.1062,9.431544 q 0,-0.2405948 0.07373,-0.4385033 0.07761,-0.1979086 0.209551,-0.3376087 0.135819,-0.1397002 0.318205,-0.2173114 0.186267,-0.077611 0.403579,-0.077611 0.221192,0 0.403578,0.077611 0.186267,0.077611 0.318206,0.2173114 0.131939,0.1397001 0.20567,0.3376087 0.07373,0.1979085 0.07373,0.4385033 z m -0.589845,0 q 0,-0.2677587 -0.108656,-0.4191005 -0.104775,-0.1552224 -0.302683,-0.1552224 -0.197909,0 -0.306565,0.1552224 -0.108655,0.1513418 -0.108655,0.4191005 0,0.2677586 0.108655,0.4268615 0.108656,0.1552225 0.306565,0.1552225 0.197908,0 0.302683,-0.1552225 0.108656,-0.1591029 0.108656,-0.4268615 z"
           style="text-align:center;text-anchor:middle"
           id="path72292" />
        <path
           d="m 13.788845,8.9270712 q -0.07761,-0.019403 -0.182387,-0.038806 -0.104775,-0.023283 -0.225072,-0.023283 -0.05433,0 -0.131939,0.011642 -0.07373,0.00776 -0.112536,0.019403 V 10.456012 H 12.558707 V 8.5234929 q 0.155223,-0.054328 0.364773,-0.1008945 0.213431,-0.050447 0.473428,-0.050447 0.04657,0 0.112536,0.00776 0.06597,0.00388 0.131939,0.015522 0.06597,0.00776 0.131939,0.023283 0.06597,0.011642 0.112537,0.031045 z"
           style="text-align:center;text-anchor:middle"
           id="path72294" />
      </g>
    </g>
    <g
       aria-label="X"
       id="text3111"
       style="font-size:3.88056px;line-height:1.25;fill:#aaaaaa;fill-opacity:1;stroke:none;stroke-width:0.264583;stroke-opacity:1"
       transform="translate(0,1.5875)">
      <path
         d="m 6.5380666,56.279047 h 0.4111726 l 0.7029725,1.051617 0.7067622,-1.051617 h 0.4111726 l -0.9095063,1.358575 0.97014,1.470368 H 8.4196076 L 7.6237897,57.904789 6.8222873,59.10799 H 6.4092199 l 1.0099309,-1.510159 z"
         id="path14673"
         style="fill:#aaaaaa;fill-opacity:1;stroke:none;stroke-width:0.15;stroke-miterlimit:4;stroke-dasharray:none;stroke-opacity:1" />
    </g>
    <g
       aria-label="Y"
       id="text9109"
       style="font-size:3.88056px;line-height:1.25;fill:#aaaaaa;fill-opacity:1;stroke:none;stroke-width:0.264583;stroke-opacity:1"
       transform="translate(0,1.5875)">
      <path
         d="m 6.4272205,76.287397 h 0.4111726 l 0.7844491,1.16341 0.7787647,-1.16341 h 0.4111726 l -1.0004568,1.481738 v 1.347206 H 7.4276773 v -1.347206 z"
         id="path14694"
         style="fill:#aaaaaa;fill-opacity:1;stroke:none;stroke-width:0.15;stroke-miterlimit:4;stroke-dasharray:none;stroke-opacity:1" />
    </g>
    <g
       aria-label="Z"
       id="text12017"
       style="font-size:3.88056px;line-height:1.25;fill:#aaaaaa;fill-opacity:1;stroke:none;stroke-width:0.264583"
       transform="translate(0,1.5875)">
      <path
         d="m 6.5086969,96.823278 h 2.2226059 v 0.2918 l -1.7886956,2.215027 h 1.8322761 v 0.322117 H 6.4651164 v -0.2918 L 8.253812,97.145395 H 6.5086969 Z"
         id="path14715"
         style="fill:#aaaaaa;fill-opacity:1;stroke:none;stroke-width:0.15;stroke-miterlimit:4;stroke-dasharray:none;stroke-opacity:1" />
    </g>
    <g
       aria-label="status"
       id="text59800"
       style="font-weight:bold;font-size:3.52778px;line-height:1.25;-inkscape-font-specification:'sans-serif Bold';stroke-width:0.264583"
       inkscape:label="status">
      <path
         d="m 3.1249324,42.113643 q 0.1587501,0 0.2434168,-0.02117 0.084667,-0.02469 0.084667,-0.09525 0,-0.04586 -0.028222,-0.07761 -0.024694,-0.03175 -0.074083,-0.05292 -0.045861,-0.02469 -0.1093612,-0.04586 -0.059972,-0.02117 -0.1270001,-0.04233 -0.09525,-0.02822 -0.1940279,-0.0635 -0.098778,-0.03881 -0.1799168,-0.09525 -0.081139,-0.05645 -0.1340556,-0.141111 -0.052917,-0.08819 -0.052917,-0.218723 0,-0.105833 0.038806,-0.197555 0.042333,-0.09525 0.1270001,-0.165806 0.088195,-0.07408 0.2222501,-0.112889 0.1340557,-0.04233 0.321028,-0.04233 0.1622779,0 0.2998613,0.02469 0.1411112,0.0247 0.2434168,0.07056 l -0.067028,0.366889 q -0.059972,-0.01764 -0.1869723,-0.05645 -0.1270001,-0.04233 -0.2857502,-0.04233 -0.1658057,0 -0.2257779,0.04233 -0.056445,0.03881 -0.056445,0.08467 0,0.03881 0.024694,0.07056 0.028222,0.02822 0.070556,0.05292 0.045861,0.0247 0.1023057,0.04939 0.059972,0.02117 0.127,0.04233 0.09525,0.03175 0.1975557,0.07055 0.1023056,0.03881 0.1834446,0.09878 0.084667,0.05645 0.1375834,0.148167 0.052917,0.08819 0.052917,0.218722 0,0.102306 -0.038806,0.194028 -0.038806,0.09172 -0.1305278,0.15875 -0.088194,0.06703 -0.2328335,0.105834 -0.144639,0.0388 -0.3563058,0.0388 -0.2151946,0 -0.3668891,-0.04939 -0.1516946,-0.04939 -0.2434169,-0.08819 l 0.067028,-0.363362 q 0.1234723,0.04939 0.2610557,0.09172 0.1411112,0.04233 0.2857502,0.04233 z"
         style="font-family:'Ubuntu Mono';-inkscape-font-specification:'Ubuntu Mono Bold';text-align:center;text-anchor:middle;fill:#aaaaaa"
         id="path72297" />
      <path
         d="M 4.5889544,41.143504 H 4.211482 V 40.78367 h 0.3774724 v -0.416278 l 0.433917,-0.07056 V 40.78367 H 5.717844 v 0.359834 H 5.0228714 v 0.670278 q 0,0.09172 0.017639,0.148167 0.017639,0.05644 0.049389,0.08819 0.03175,0.03175 0.077611,0.04233 0.045861,0.01058 0.1023056,0.01058 0.059972,0 0.1093612,-0.0035 0.052917,-0.0035 0.098778,-0.01058 0.049389,-0.01058 0.098778,-0.02822 0.052917,-0.01764 0.112889,-0.04586 l 0.059972,0.373945 q -0.1199446,0.04939 -0.2610558,0.07056 -0.1375834,0.02117 -0.2681112,0.02117 -0.1516946,0 -0.2681113,-0.02469 -0.1164168,-0.0247 -0.1975557,-0.09525 -0.081139,-0.07056 -0.1234723,-0.197556 -0.042333,-0.130528 -0.042333,-0.338667 z"
         style="font-family:'Ubuntu Mono';-inkscape-font-specification:'Ubuntu Mono Bold';text-align:center;text-anchor:middle;fill:#aaaaaa"
         id="path72299" />
      <path
         d="m 6.733838,42.131282 q 0.070556,0 0.1375834,0 0.067028,-0.0035 0.1164168,-0.01058 v -0.381001 q -0.042333,-0.0071 -0.1023056,-0.01058 -0.059972,-0.0071 -0.1093612,-0.0071 -0.067028,0 -0.1305279,0.01058 -0.0635,0.0071 -0.1128889,0.02822 -0.045861,0.02117 -0.074083,0.05997 -0.028222,0.03881 -0.028222,0.102306 0,0.112889 0.084667,0.162278 0.084667,0.04586 0.2187223,0.04586 z M 6.695032,40.741337 q 0.2046113,0 0.3386669,0.04939 0.1375834,0.04586 0.2187224,0.134055 0.081139,0.08467 0.1164167,0.211667 0.035278,0.123472 0.035278,0.278695 v 0.987778 q -0.09525,0.02117 -0.2822224,0.04939 -0.1869723,0.02822 -0.4198058,0.02822 -0.1587501,0 -0.289278,-0.02822 -0.127,-0.02822 -0.2187223,-0.09172 -0.091722,-0.06703 -0.1411112,-0.169334 -0.049389,-0.105833 -0.049389,-0.257528 0,-0.144639 0.056444,-0.243416 0.056445,-0.09878 0.1516946,-0.158751 0.09525,-0.05997 0.2187223,-0.08467 0.1234723,-0.02822 0.257528,-0.02822 0.1693334,0 0.2998613,0.02822 v -0.05292 q 0,-0.123472 -0.077611,-0.204611 -0.077611,-0.08467 -0.2681113,-0.08467 -0.1234723,0 -0.239889,0.01764 -0.112889,0.01764 -0.1834446,0.04233 l -0.059972,-0.34925 q 0.081139,-0.02822 0.2293057,-0.04939 0.1481667,-0.02469 0.3069168,-0.02469 z"
         style="font-family:'Ubuntu Mono';-inkscape-font-specification:'Ubuntu Mono Bold';text-align:center;text-anchor:middle;fill:#aaaaaa"
         id="path72301" />
      <path
         d="M 8.1167209,41.143504 H 7.7392484 V 40.78367 h 0.3774725 v -0.416278 l 0.4339169,-0.07056 v 0.486834 H 9.2456105 V 41.1435 H 8.5506378 v 0.670278 q 0,0.09172 0.017639,0.148167 0.017639,0.05644 0.049389,0.08819 0.03175,0.03175 0.077611,0.04233 0.045861,0.01058 0.1023056,0.01058 0.059972,0 0.1093612,-0.0035 0.052917,-0.0035 0.098778,-0.01058 0.049389,-0.01058 0.098778,-0.02822 0.052917,-0.01764 0.112889,-0.04586 l 0.059972,0.373945 q -0.1199445,0.04939 -0.2610557,0.07056 -0.1375834,0.02117 -0.2681113,0.02117 -0.1516945,0 -0.2681113,-0.02469 -0.1164167,-0.0247 -0.1975556,-0.09525 -0.081139,-0.07056 -0.1234724,-0.197556 -0.042333,-0.130528 -0.042333,-0.338667 z"
         style="font-family:'Ubuntu Mono';-inkscape-font-specification:'Ubuntu Mono Bold';text-align:center;text-anchor:middle;fill:#aaaaaa"
         id="path72303" />
      <path
         d="m 10.9213,42.385282 q -0.119945,0.03175 -0.292806,0.0635 -0.169334,0.03175 -0.370417,0.03175 -0.204611,0 -0.3351392,-0.05644 Q 9.79241,42.367643 9.7147988,42.265338 9.6407154,42.159504 9.6124932,42.018393 9.584271,41.877282 9.584271,41.707948 V 40.78367 h 0.433917 v 0.867834 q 0,0.229306 0.05292,0.342195 0.05644,0.109361 0.215194,0.109361 0.09878,0 0.197556,-0.01764 V 40.78367 H 10.9213 Z"
         style="font-family:'Ubuntu Mono';-inkscape-font-specification:'Ubuntu Mono Bold';text-align:center;text-anchor:middle;fill:#aaaaaa"
         id="path72305" />
      <path
         d="m 11.944349,42.113643 q 0.15875,0 0.243417,-0.02117 0.08467,-0.02469 0.08467,-0.09525 0,-0.04586 -0.02822,-0.07761 -0.02469,-0.03175 -0.07408,-0.05292 -0.04586,-0.02469 -0.109361,-0.04586 -0.05997,-0.02117 -0.127,-0.04233 -0.09525,-0.02822 -0.194028,-0.0635 -0.09878,-0.03881 -0.179917,-0.09525 -0.08114,-0.05645 -0.134055,-0.141111 -0.05292,-0.08819 -0.05292,-0.218723 0,-0.105833 0.03881,-0.197555 0.04233,-0.09525 0.127,-0.165806 0.08819,-0.07408 0.22225,-0.112889 0.134055,-0.04233 0.321028,-0.04233 0.162278,0 0.299861,0.02469 0.141111,0.0247 0.243417,0.07056 l -0.06703,0.366889 q -0.05997,-0.01764 -0.186972,-0.05645 -0.127,-0.04233 -0.28575,-0.04233 -0.165806,0 -0.225778,0.04233 -0.05645,0.03881 -0.05645,0.08467 0,0.03881 0.02469,0.07056 0.02822,0.02822 0.07056,0.05292 0.04586,0.0247 0.102306,0.04939 0.05997,0.02117 0.127,0.04233 0.09525,0.03175 0.197556,0.07055 0.102305,0.03881 0.183444,0.09878 0.08467,0.05645 0.137584,0.148167 0.05292,0.08819 0.05292,0.218722 0,0.102306 -0.0388,0.194028 -0.03881,0.09172 -0.130528,0.15875 -0.0882,0.06703 -0.232834,0.105834 -0.144639,0.0388 -0.356305,0.0388 -0.215195,0 -0.36689,-0.04939 -0.151694,-0.04939 -0.243416,-0.08819 l 0.06703,-0.363362 q 0.123473,0.04939 0.261056,0.09172 0.141111,0.04233 0.28575,0.04233 z"
         style="font-family:'Ubuntu Mono';-inkscape-font-specification:'Ubuntu Mono Bold';text-align:center;text-anchor:middle;fill:#aaaaaa"
         id="path72307" />
    </g>
  </g>
</svg>
